<svg width="254" height="41" viewBox="0 0 254 41" fill="none" xmlns="http://www.w3.org/2000/svg">
<path d="M47.4043 10.2714H10.1581V30.7549H47.4043L33.8602 41H10.1581V30.7549H0V0L10.1581 6.83333L20.3161 0H47.4043V10.2714Z" fill="#7794E2"/>
<path fill-rule="evenodd" clip-rule="evenodd" d="M0 41H5.64337V35.3056H0V41Z" fill="white"/>
<path d="M62.678 41V33.4638C60.9958 33.0994 59.5077 32.4356 58.2137 31.4724C56.9456 30.5092 55.9492 29.2727 55.2245 27.7629C54.5258 26.227 54.1764 24.4698 54.1764 22.4914V13.6667H59.7277V22.8429C59.7277 23.9362 59.9606 24.9384 60.4265 25.8495C60.8923 26.7346 61.5522 27.4505 62.4063 27.9971C63.2862 28.5438 64.3085 28.8171 65.4731 28.8171C66.6636 28.8171 67.6859 28.5438 68.5399 27.9971C69.394 27.4505 70.0539 26.7346 70.5198 25.8495C70.9856 24.9384 71.2185 23.9362 71.2185 22.8429V13.6667H76.7698V22.4914C76.7698 24.4698 76.4075 26.227 75.6829 27.7629C74.9841 29.2727 73.9877 30.5222 72.6937 31.5114C71.4256 32.4746 69.9375 33.1254 68.2294 33.4638V41H62.678Z" fill="white"/>
<path d="M82.0072 41V13.6667H93.3816C95.1674 13.6667 96.7849 14.0832 98.2342 14.9162C99.7093 15.7232 100.874 16.8556 101.728 18.3133C102.608 19.7711 103.048 21.4632 103.048 23.3895C103.048 25.2898 102.608 26.9819 101.728 28.4657C100.874 29.9235 99.7093 31.0689 98.2342 31.9019C96.7849 32.7089 95.1674 33.1124 93.3816 33.1124H87.5586V41H82.0072ZM87.5586 28.1924H92.7217C93.6016 28.1924 94.4039 28.0102 95.1285 27.6457C95.8532 27.2552 96.4225 26.7086 96.8366 26.0057C97.2766 25.2768 97.4966 24.4048 97.4966 23.3895C97.4966 22.3743 97.2766 21.5152 96.8366 20.8124C96.4225 20.0835 95.8532 19.5368 95.1285 19.1724C94.4039 18.7819 93.6016 18.5867 92.7217 18.5867H87.5586V28.1924Z" fill="white"/>
<path d="M106.725 41V13.6667H112.276V24.639H124.155V13.6667H129.707V41H124.155V29.559H112.276V41H106.725Z" fill="white"/>
<path d="M142.107 41C140.606 41 139.234 40.6356 137.992 39.9067C136.775 39.1778 135.805 38.2016 135.08 36.9781C134.355 35.7286 133.993 34.3489 133.993 32.839C133.993 31.7457 134.226 30.7175 134.692 29.7543C135.158 28.7911 135.792 27.9451 136.594 27.2162C135.792 26.4873 135.158 25.6413 134.692 24.6781C134.226 23.7149 133.993 22.6997 133.993 21.6324C133.993 20.1486 134.343 18.8079 135.041 17.6105C135.766 16.413 136.724 15.4629 137.914 14.76C139.13 14.0311 140.463 13.6667 141.913 13.6667H153.093V18.5867H142.534C141.99 18.5867 141.486 18.7298 141.02 19.0162C140.58 19.2765 140.217 19.641 139.933 20.1095C139.674 20.5521 139.544 21.0597 139.544 21.6324C139.544 22.179 139.674 22.6867 139.933 23.1552C140.217 23.5978 140.58 23.9622 141.02 24.2486C141.486 24.5089 141.99 24.639 142.534 24.639H151.773V29.559H142.767C142.171 29.559 141.628 29.7152 141.136 30.0276C140.644 30.314 140.256 30.7044 139.972 31.199C139.687 31.6937 139.544 32.2403 139.544 32.839C139.544 33.4378 139.687 33.9844 139.972 34.479C140.256 34.9736 140.644 35.3641 141.136 35.6505C141.628 35.9368 142.171 36.08 142.767 36.08H153.093V41H142.107Z" fill="white"/>
<path d="M157.373 41V13.6667H169.524C171.31 13.6667 172.927 14.0702 174.377 14.8771C175.852 15.6581 177.016 16.7514 177.871 18.1571C178.75 19.5629 179.19 21.2029 179.19 23.0771C179.19 24.8994 178.763 26.5133 177.909 27.919C177.055 29.2987 175.929 30.3921 174.532 31.199L177.016 35.5724C177.12 35.7286 177.249 35.8587 177.405 35.9629C177.56 36.0409 177.741 36.08 177.948 36.08H180.588V41H177.094C176.007 41 175.011 40.7267 174.105 40.18C173.225 39.6333 172.526 38.9175 172.009 38.0324L168.942 32.4876C168.709 32.4876 168.463 32.4876 168.204 32.4876C167.971 32.4876 167.738 32.4876 167.505 32.4876H162.925V41H157.373ZM162.925 27.5676H168.864C169.744 27.5676 170.546 27.3984 171.271 27.06C171.996 26.6956 172.565 26.1749 172.979 25.4981C173.419 24.8213 173.639 24.0143 173.639 23.0771C173.639 22.14 173.419 21.333 172.979 20.6562C172.539 19.9794 171.957 19.4717 171.232 19.1333C170.533 18.7689 169.744 18.5867 168.864 18.5867H162.925V27.5676Z" fill="white"/>
<path d="M187.36 41V13.6667H203.337C204.702 13.6667 205.935 13.966 207.037 14.5648C208.165 15.1635 209.057 15.9965 209.713 17.0638C210.395 18.1311 210.736 19.3937 210.736 20.8514C210.736 21.7105 210.565 22.5305 210.224 23.3114C209.909 24.0924 209.45 24.7822 208.847 25.3809C208.27 25.9797 207.601 26.4613 206.84 26.8257C207.732 27.1902 208.519 27.7108 209.201 28.3876C209.909 29.0644 210.46 29.8454 210.854 30.7305C211.274 31.6156 211.484 32.5657 211.484 33.581C211.484 35.0648 211.129 36.3663 210.421 37.4857C209.739 38.6051 208.821 39.4771 207.666 40.1019C206.512 40.7006 205.226 41 203.81 41H187.36ZM193.971 35.5724H202.078C202.629 35.5724 203.114 35.4422 203.534 35.1819C203.98 34.9216 204.334 34.5702 204.597 34.1276C204.859 33.6851 204.99 33.2035 204.99 32.6829C204.99 32.1362 204.859 31.6546 204.597 31.2381C204.334 30.7956 203.98 30.4441 203.534 30.1838C203.114 29.9235 202.629 29.7933 202.078 29.7933H193.971V35.5724ZM193.971 24.561H201.409C201.934 24.561 202.393 24.4438 202.786 24.2095C203.206 23.9492 203.534 23.6238 203.77 23.2333C204.006 22.8168 204.125 22.3613 204.125 21.8667C204.125 21.346 204.006 20.8905 203.77 20.5C203.534 20.0835 203.206 19.7581 202.786 19.5238C202.393 19.2635 201.934 19.1333 201.409 19.1333H193.971V24.561Z" fill="#7794E2"/>
<path d="M214.67 41V35.5333H219.431V19.1333H214.67V13.6667H230.765V19.1333H226.003V35.5333H230.765V41H214.67Z" fill="#7794E2"/>
<path d="M246.146 41C244.467 41 242.984 40.6356 241.699 39.9067C240.439 39.1517 239.442 38.1495 238.708 36.9C237.999 35.6505 237.645 34.2578 237.645 32.7219V19.1333H230.168V13.6667H251.694V19.1333H244.257V33.3076C244.257 33.9063 244.467 34.427 244.886 34.8695C245.306 35.3121 245.831 35.5333 246.46 35.5333H248.625V41H246.146Z" fill="#7794E2"/>
<path fill-rule="evenodd" clip-rule="evenodd" d="M4.5147 35.3056H5.64337V36.4444H7.90072V33.0278H4.5147V35.3056Z" fill="white"/>
</svg>
