<svg width="221" height="36" viewBox="0 0 221 36" fill="none" xmlns="http://www.w3.org/2000/svg">
<path d="M41.6233 9.01877H8.91928V27.0043H41.6233L29.7309 36H8.91928V27.0043H0V0L8.91928 6L17.8386 0H41.6233V9.01877Z" fill="#5D80DB"/>
<path fill-rule="evenodd" clip-rule="evenodd" d="M0 36H4.95516V31H0V36Z" fill="black"/>
<path d="M55.0344 36V29.3829C53.5573 29.0629 52.2507 28.48 51.1145 27.6343C50.001 26.7886 49.1261 25.7029 48.4898 24.3771C47.8763 23.0286 47.5695 21.4857 47.5695 19.7486V12H52.4438V20.0571C52.4438 21.0171 52.6483 21.8971 53.0574 22.6971C53.4664 23.4743 54.0459 24.1029 54.7958 24.5829C55.5684 25.0629 56.466 25.3029 57.4886 25.3029C58.5339 25.3029 59.4315 25.0629 60.1814 24.5829C60.9313 24.1029 61.5108 23.4743 61.9198 22.6971C62.3288 21.8971 62.5333 21.0171 62.5333 20.0571V12H67.4077V19.7486C67.4077 21.4857 67.0895 23.0286 66.4532 24.3771C65.8397 25.7029 64.9648 26.8 63.8286 27.6686C62.7151 28.5143 61.4085 29.0857 59.9087 29.3829V36H55.0344Z" fill="black"/>
<path d="M72.0064 36V12H81.9936C83.5616 12 84.9818 12.3657 86.2544 13.0971C87.5497 13.8057 88.5723 14.8 89.3222 16.08C90.0948 17.36 90.4811 18.8457 90.4811 20.5371C90.4811 22.2057 90.0948 23.6914 89.3222 24.9943C88.5723 26.2743 87.5497 27.28 86.2544 28.0114C84.9818 28.72 83.5616 29.0743 81.9936 29.0743H76.8807V36H72.0064ZM76.8807 24.7543H81.4142C82.1868 24.7543 82.8912 24.5943 83.5275 24.2743C84.1638 23.9314 84.6637 23.4514 85.0273 22.8343C85.4136 22.1943 85.6068 21.4286 85.6068 20.5371C85.6068 19.6457 85.4136 18.8914 85.0273 18.2743C84.6637 17.6343 84.1638 17.1543 83.5275 16.8343C82.8912 16.4914 82.1868 16.32 81.4142 16.32H76.8807V24.7543Z" fill="black"/>
<path d="M93.7097 36V12H98.584V21.6343H109.014V12H113.889V36H109.014V25.9543H98.584V36H93.7097Z" fill="black"/>
<path d="M124.777 36C123.459 36 122.254 35.68 121.163 35.04C120.095 34.4 119.243 33.5429 118.607 32.4686C117.971 31.3714 117.653 30.16 117.653 28.8343C117.653 27.8743 117.857 26.9714 118.266 26.1257C118.675 25.28 119.232 24.5371 119.936 23.8971C119.232 23.2571 118.675 22.5143 118.266 21.6686C117.857 20.8229 117.653 19.9314 117.653 18.9943C117.653 17.6914 117.959 16.5143 118.573 15.4629C119.209 14.4114 120.05 13.5771 121.095 12.96C122.163 12.32 123.334 12 124.606 12H134.423V16.32H125.152C124.674 16.32 124.231 16.4457 123.822 16.6971C123.436 16.9257 123.118 17.2457 122.868 17.6571C122.641 18.0457 122.527 18.4914 122.527 18.9943C122.527 19.4743 122.641 19.92 122.868 20.3314C123.118 20.72 123.436 21.04 123.822 21.2914C124.231 21.52 124.674 21.6343 125.152 21.6343H133.264V25.9543H125.356C124.833 25.9543 124.356 26.0914 123.924 26.3657C123.493 26.6171 123.152 26.96 122.902 27.3943C122.652 27.8286 122.527 28.3086 122.527 28.8343C122.527 29.36 122.652 29.84 122.902 30.2743C123.152 30.7086 123.493 31.0514 123.924 31.3029C124.356 31.5543 124.833 31.68 125.356 31.68H134.423V36H124.777Z" fill="black"/>
<path d="M138.182 36V12H148.85C150.418 12 151.839 12.3543 153.111 13.0629C154.407 13.7486 155.429 14.7086 156.179 15.9429C156.952 17.1771 157.338 18.6171 157.338 20.2629C157.338 21.8629 156.963 23.28 156.213 24.5143C155.463 25.7257 154.475 26.6857 153.248 27.3943L155.429 31.2343C155.52 31.3714 155.634 31.4857 155.77 31.5771C155.906 31.6457 156.065 31.68 156.247 31.68H158.565V36H155.497C154.543 36 153.668 35.76 152.873 35.28C152.1 34.8 151.486 34.1714 151.032 33.3943L148.339 28.5257C148.135 28.5257 147.919 28.5257 147.692 28.5257C147.487 28.5257 147.282 28.5257 147.078 28.5257H143.056V36H138.182ZM143.056 24.2057H148.271C149.044 24.2057 149.748 24.0571 150.384 23.76C151.021 23.44 151.521 22.9829 151.884 22.3886C152.27 21.7943 152.464 21.0857 152.464 20.2629C152.464 19.44 152.27 18.7314 151.884 18.1371C151.498 17.5429 150.987 17.0971 150.35 16.8C149.737 16.48 149.044 16.32 148.271 16.32H143.056V24.2057Z" fill="black"/>
<path d="M164.511 36V12H178.54C179.738 12 180.821 12.2629 181.788 12.7886C182.779 13.3143 183.562 14.0457 184.138 14.9829C184.737 15.92 185.036 17.0286 185.036 18.3086C185.036 19.0629 184.887 19.7829 184.587 20.4686C184.311 21.1543 183.908 21.76 183.378 22.2857C182.871 22.8114 182.284 23.2343 181.616 23.5543C182.399 23.8743 183.09 24.3314 183.689 24.9257C184.311 25.52 184.795 26.2057 185.14 26.9829C185.509 27.76 185.693 28.5943 185.693 29.4857C185.693 30.7886 185.382 31.9314 184.76 32.9143C184.161 33.8971 183.355 34.6629 182.341 35.2114C181.328 35.7371 180.199 36 178.955 36H164.511ZM170.316 31.2343H177.434C177.918 31.2343 178.344 31.12 178.713 30.8914C179.105 30.6629 179.416 30.3543 179.646 29.9657C179.876 29.5771 179.991 29.1543 179.991 28.6971C179.991 28.2171 179.876 27.7943 179.646 27.4286C179.416 27.04 179.105 26.7314 178.713 26.5029C178.344 26.2743 177.918 26.16 177.434 26.16H170.316V31.2343ZM170.316 21.5657H176.847C177.308 21.5657 177.711 21.4629 178.056 21.2571C178.425 21.0286 178.713 20.7429 178.92 20.4C179.128 20.0343 179.231 19.6343 179.231 19.2C179.231 18.7429 179.128 18.3429 178.92 18C178.713 17.6343 178.425 17.3486 178.056 17.1429C177.711 16.9143 177.308 16.8 176.847 16.8H170.316V21.5657Z" fill="#5D80DB"/>
<path d="M188.49 36V31.2H192.672V16.8H188.49V12H202.623V16.8H198.442V31.2H202.623V36H188.49Z" fill="#5D80DB"/>
<path d="M216.128 36C214.654 36 213.352 35.68 212.223 35.04C211.118 34.3771 210.242 33.4971 209.597 32.4C208.975 31.3029 208.664 30.08 208.664 28.7314V16.8H202.099V12H221V16.8H214.469V29.2457C214.469 29.7714 214.654 30.2286 215.022 30.6171C215.391 31.0057 215.851 31.2 216.404 31.2H218.305V36H216.128Z" fill="#5D80DB"/>
<path fill-rule="evenodd" clip-rule="evenodd" d="M3.96413 31H4.95516V32H6.93722V29H3.96413V31Z" fill="black"/>
</svg>
