<svg width="162" height="36" viewBox="0 0 162 36" fill="none" xmlns="http://www.w3.org/2000/svg">
<path d="M17.9094 0C18.7537 -3.69023e-08 19.578 0.120958 20.382 0.362164C21.186 0.583261 21.9096 0.944735 22.5528 1.44718C23.1759 1.9497 23.6885 2.59334 24.0905 3.37725C24.4724 4.16114 24.6632 5.11591 24.6632 6.24144V7.74899H24.6661V10.8296H21.3772V6.42252C21.3772 6.04062 21.2764 5.68855 21.0754 5.36695C20.8543 5.02525 20.5829 4.73365 20.2613 4.49246C19.9197 4.23125 19.548 4.03027 19.1461 3.88958C18.724 3.74888 18.3114 3.67832 17.9094 3.67832C17.5277 3.67834 17.166 3.74896 16.8244 3.88958C16.4828 4.01016 16.181 4.19096 15.9197 4.43209C15.6585 4.67326 15.4475 4.95487 15.2867 5.27641C15.1259 5.57791 15.0352 5.90982 15.0151 6.27162V11.5179H15.0173V14.5985H11.3066V14.5955H6.42252C6.04061 14.5955 5.68855 14.6963 5.36694 14.8973C5.02524 15.1184 4.73365 15.3898 4.49245 15.7114C4.23124 16.053 4.03026 16.4248 3.88958 16.8266C3.74888 17.2488 3.67832 17.6613 3.67832 18.0633C3.67834 18.4451 3.74895 18.8067 3.88958 19.1483C4.01016 19.49 4.19095 19.7917 4.43209 20.053C4.67326 20.3143 4.95486 20.5253 5.2764 20.6861C5.57791 20.8469 5.90981 20.9376 6.27162 20.9577H11.5178V20.9555H14.5955V29.5775C14.5955 29.9594 14.6963 30.3114 14.8973 30.6331C15.1184 30.9748 15.3898 31.2663 15.7114 31.5075C16.053 31.7688 16.4248 31.9697 16.8266 32.1104C17.2487 32.2511 17.6613 32.3217 18.0633 32.3217C18.4451 32.3217 18.8067 32.251 19.1483 32.1104C19.49 31.9898 19.7917 31.809 20.053 31.5679C20.1616 31.4677 20.2606 31.3597 20.3518 31.2455V35.5738C19.6303 35.8567 18.868 36 18.0633 36C17.2191 36 16.3947 35.879 15.5907 35.6378C14.7868 35.4167 14.0631 35.0553 13.4199 34.5528C12.7968 34.0503 12.2842 33.4067 11.8822 32.6227C11.5004 31.8389 11.3095 30.8841 11.3095 29.7586V24.6662H6.24144C5.37712 24.6461 4.57293 24.4553 3.82922 24.0935C3.0655 23.7317 2.4023 23.2492 1.83953 22.6463C1.27671 22.0634 0.833938 21.3694 0.512329 20.5653C0.170756 19.7816 2.30314e-05 18.9475 0 18.0633C-7.38044e-08 17.2191 0.120958 16.3947 0.362164 15.5907C0.58326 14.7868 0.944734 14.0631 1.44718 13.4199C1.9497 12.7968 2.59333 12.2842 3.37725 11.8822C4.16114 11.5004 5.1159 11.3095 6.24144 11.3095H11.3066V6.24144C11.3267 5.37714 11.5175 4.57293 11.8793 3.82922C12.241 3.06551 12.7235 2.40229 13.3264 1.83953C13.9094 1.27671 14.6034 0.833939 15.4074 0.51233C16.1912 0.170757 17.0252 2.29927e-05 17.9094 0Z" fill="white"/>
<path d="M17.9094 0C18.7537 -3.69023e-08 19.578 0.120958 20.382 0.362164C21.186 0.583261 21.9096 0.944735 22.5528 1.44718C23.1759 1.9497 23.6885 2.59334 24.0905 3.37725C24.4724 4.16114 24.6632 5.11591 24.6632 6.24144V7.74899H24.6661V10.8296H21.3772V6.42252C21.3772 6.04062 21.2764 5.68855 21.0754 5.36695C20.8543 5.02525 20.5829 4.73365 20.2613 4.49246C19.9197 4.23125 19.548 4.03027 19.1461 3.88958C18.724 3.74888 18.3114 3.67832 17.9094 3.67832C17.5277 3.67834 17.166 3.74896 16.8244 3.88958C16.4828 4.01016 16.181 4.19096 15.9197 4.43209C15.6585 4.67326 15.4475 4.95487 15.2867 5.27641C15.1259 5.57791 15.0352 5.90982 15.0151 6.27162V11.5179H15.0173V14.5985H11.3066V14.5955H6.42252C6.04061 14.5955 5.68855 14.6963 5.36694 14.8973C5.02524 15.1184 4.73365 15.3898 4.49245 15.7114C4.23124 16.053 4.03026 16.4248 3.88958 16.8266C3.74888 17.2488 3.67832 17.6613 3.67832 18.0633C3.67834 18.4451 3.74895 18.8067 3.88958 19.1483C4.01016 19.49 4.19095 19.7917 4.43209 20.053C4.67326 20.3143 4.95486 20.5253 5.2764 20.6861C5.57791 20.8469 5.90981 20.9376 6.27162 20.9577H11.5178V20.9555H14.5955V29.5775C14.5955 29.9594 14.6963 30.3114 14.8973 30.6331C15.1184 30.9748 15.3898 31.2663 15.7114 31.5075C16.053 31.7688 16.4248 31.9697 16.8266 32.1104C17.2487 32.2511 17.6613 32.3217 18.0633 32.3217C18.4451 32.3217 18.8067 32.251 19.1483 32.1104C19.49 31.9898 19.7917 31.809 20.053 31.5679C20.1616 31.4677 20.2606 31.3597 20.3518 31.2455V35.5738C19.6303 35.8567 18.868 36 18.0633 36C17.2191 36 16.3947 35.879 15.5907 35.6378C14.7868 35.4167 14.0631 35.0553 13.4199 34.5528C12.7968 34.0503 12.2842 33.4067 11.8822 32.6227C11.5004 31.8389 11.3095 30.8841 11.3095 29.7586V24.6662H6.24144C5.37712 24.6461 4.57293 24.4553 3.82922 24.0935C3.0655 23.7317 2.4023 23.2492 1.83953 22.6463C1.27671 22.0634 0.833938 21.3694 0.512329 20.5653C0.170756 19.7816 2.30314e-05 18.9475 0 18.0633C-7.38044e-08 17.2191 0.120958 16.3947 0.362164 15.5907C0.58326 14.7868 0.944734 14.0631 1.44718 13.4199C1.9497 12.7968 2.59333 12.2842 3.37725 11.8822C4.16114 11.5004 5.1159 11.3095 6.24144 11.3095H11.3066V6.24144C11.3267 5.37714 11.5175 4.57293 11.8793 3.82922C12.241 3.06551 12.7235 2.40229 13.3264 1.83953C13.9094 1.27671 14.6034 0.833939 15.4074 0.51233C16.1912 0.170757 17.0252 2.29927e-05 17.9094 0Z" fill="white"/>
<path d="M17.9094 0C18.7537 -3.69023e-08 19.578 0.120958 20.382 0.362164C21.186 0.583261 21.9096 0.944735 22.5528 1.44718C23.1759 1.9497 23.6885 2.59334 24.0905 3.37725C24.4724 4.16114 24.6632 5.11591 24.6632 6.24144V7.74899H24.6661V10.8296H21.3772V6.42252C21.3772 6.04062 21.2764 5.68855 21.0754 5.36695C20.8543 5.02525 20.5829 4.73365 20.2613 4.49246C19.9197 4.23125 19.548 4.03027 19.1461 3.88958C18.724 3.74888 18.3114 3.67832 17.9094 3.67832C17.5277 3.67834 17.166 3.74896 16.8244 3.88958C16.4828 4.01016 16.181 4.19096 15.9197 4.43209C15.6585 4.67326 15.4475 4.95487 15.2867 5.27641C15.1259 5.57791 15.0352 5.90982 15.0151 6.27162V11.5179H15.0173V14.5985H11.3066V14.5955H6.42252C6.04061 14.5955 5.68855 14.6963 5.36694 14.8973C5.02524 15.1184 4.73365 15.3898 4.49245 15.7114C4.23124 16.053 4.03026 16.4248 3.88958 16.8266C3.74888 17.2488 3.67832 17.6613 3.67832 18.0633C3.67834 18.4451 3.74895 18.8067 3.88958 19.1483C4.01016 19.49 4.19095 19.7917 4.43209 20.053C4.67326 20.3143 4.95486 20.5253 5.2764 20.6861C5.57791 20.8469 5.90981 20.9376 6.27162 20.9577H11.5178V20.9555H14.5955V29.5775C14.5955 29.9594 14.6963 30.3114 14.8973 30.6331C15.1184 30.9748 15.3898 31.2663 15.7114 31.5075C16.053 31.7688 16.4248 31.9697 16.8266 32.1104C17.2487 32.2511 17.6613 32.3217 18.0633 32.3217C18.4451 32.3217 18.8067 32.251 19.1483 32.1104C19.49 31.9898 19.7917 31.809 20.053 31.5679C20.1616 31.4677 20.2606 31.3597 20.3518 31.2455V35.5738C19.6303 35.8567 18.868 36 18.0633 36C17.2191 36 16.3947 35.879 15.5907 35.6378C14.7868 35.4167 14.0631 35.0553 13.4199 34.5528C12.7968 34.0503 12.2842 33.4067 11.8822 32.6227C11.5004 31.8389 11.3095 30.8841 11.3095 29.7586V24.6662H6.24144C5.37712 24.6461 4.57293 24.4553 3.82922 24.0935C3.0655 23.7317 2.4023 23.2492 1.83953 22.6463C1.27671 22.0634 0.833938 21.3694 0.512329 20.5653C0.170756 19.7816 2.30314e-05 18.9475 0 18.0633C-7.38044e-08 17.2191 0.120958 16.3947 0.362164 15.5907C0.58326 14.7868 0.944734 14.0631 1.44718 13.4199C1.9497 12.7968 2.59333 12.2842 3.37725 11.8822C4.16114 11.5004 5.1159 11.3095 6.24144 11.3095H11.3066V6.24144C11.3267 5.37714 11.5175 4.57293 11.8793 3.82922C12.241 3.06551 12.7235 2.40229 13.3264 1.83953C13.9094 1.27671 14.6034 0.833939 15.4074 0.51233C16.1912 0.170757 17.0252 2.29927e-05 17.9094 0Z" fill="white"/>
<path d="M29.1858 11.3066C30.0501 11.3267 30.8543 11.5175 31.5981 11.8793C32.3618 12.2411 33.025 12.7236 33.5877 13.3265C34.1506 13.9094 34.5933 14.6035 34.9149 15.4075C35.2565 16.1912 35.4272 17.0253 35.4273 17.9095C35.4273 18.7537 35.3063 19.5781 35.0651 20.3821C34.844 21.186 34.4825 21.9097 33.9801 22.5529C33.4776 23.176 32.8339 23.6886 32.05 24.0906C31.2661 24.4724 30.3114 24.6633 29.1858 24.6633H23.9094V24.6662L20.9555 24.6684V21.3795L29.0048 21.3773C29.3867 21.3773 29.7387 21.2765 30.0603 21.0755C30.402 20.8544 30.6936 20.583 30.9348 20.2614C31.196 19.9198 31.397 19.548 31.5377 19.1462C31.6784 18.7241 31.749 18.3115 31.749 17.9095C31.7489 17.5277 31.6783 17.1661 31.5377 16.8245C31.4171 16.4828 31.2363 16.1811 30.9952 15.9198C30.754 15.6586 30.4724 15.4476 30.1509 15.2868C29.8494 15.126 29.5175 15.0352 29.1557 15.0151H23.9094V15.0174H20.9555V11.3066H29.1858Z" fill="#55C9BB"/>
<path d="M20.9577 24.4822V35.4274H24.6662V21.3795H20.9555L20.9555 24.4822H20.9577Z" fill="#55C9BB"/>
<path d="M39.4272 35.6279V17.0496H42.2061V23.97C42.7354 23.5896 43.3061 23.3003 43.9181 23.1018C44.5466 22.9034 45.2083 22.8042 45.903 22.8042C46.7797 22.8042 47.5902 22.9695 48.3345 23.3003C49.0789 23.6144 49.7322 24.0609 50.2946 24.6397C50.857 25.2019 51.2953 25.8634 51.6096 26.624C51.9404 27.3847 52.1141 28.2032 52.1307 29.0796C52.1472 29.493 52.1555 30.0635 52.1555 30.7911C52.1555 31.5187 52.1472 32.2463 52.1307 32.9739C52.1307 33.8172 52.1307 34.7019 52.1307 35.6279H49.3518V29.3525C49.3518 28.8564 49.2443 28.4017 49.0292 27.9882C48.8307 27.5583 48.5578 27.1862 48.2105 26.8721C47.8796 26.5413 47.4909 26.285 47.0443 26.1031C46.6143 25.9212 46.1594 25.8303 45.6797 25.8303C45.2166 25.8303 44.7699 25.9212 44.3399 26.1031C43.9264 26.285 43.5542 26.5413 43.2234 26.8721C42.9091 27.1862 42.661 27.5583 42.479 27.9882C42.2971 28.4182 42.2061 28.8812 42.2061 29.3773V35.6279H39.4272Z" fill="white"/>
<path d="M53.7325 29.3773C53.7325 28.4678 53.8979 27.6162 54.2288 26.8225C54.5761 26.0287 55.0393 25.3342 55.6182 24.7389C56.2137 24.1436 56.9001 23.6723 57.6775 23.3251C58.4715 22.9778 59.3151 22.8042 60.2083 22.8042C60.903 22.8042 61.5564 22.9034 62.1684 23.1018C62.797 23.3003 63.3759 23.5896 63.9052 23.97V23.1018H66.6841V35.6279H63.9052V34.7598C63.3759 35.1401 62.797 35.4295 62.1684 35.6279C61.5564 35.8429 60.903 35.9504 60.2083 35.9504C59.3151 35.9504 58.4715 35.7768 57.6775 35.4295C56.9001 35.0822 56.2137 34.611 55.6182 34.0157C55.0393 33.4204 54.5761 32.7258 54.2288 31.9321C53.8979 31.1384 53.7325 30.2868 53.7325 29.3773ZM56.7595 29.3773C56.7595 29.8734 56.8505 30.3364 57.0324 30.7663C57.2144 31.1963 57.4542 31.5766 57.752 31.9073C58.0663 32.2215 58.4302 32.4695 58.8437 32.6514C59.2737 32.8333 59.7286 32.9243 60.2083 32.9243C60.688 32.9243 61.1346 32.8333 61.5481 32.6514C61.9782 32.4695 62.3421 32.2215 62.6398 31.9073C62.9541 31.5766 63.2022 31.1963 63.3842 30.7663C63.5661 30.3364 63.6571 29.8734 63.6571 29.3773C63.6571 28.8812 63.5661 28.4182 63.3842 27.9882C63.2022 27.5583 62.9541 27.1862 62.6398 26.8721C62.3421 26.5413 61.9782 26.285 61.5481 26.1031C61.1346 25.9212 60.688 25.8303 60.2083 25.8303C59.7286 25.8303 59.2737 25.9212 58.8437 26.1031C58.4302 26.285 58.0663 26.5413 57.752 26.8721C57.4542 27.1862 57.2144 27.5583 57.0324 27.9882C56.8505 28.4182 56.7595 28.8812 56.7595 29.3773Z" fill="white"/>
<path d="M69.1573 35.6279V23.1018H71.9361V23.97C72.4654 23.5896 73.0361 23.3003 73.6481 23.1018C74.2767 22.9034 74.9383 22.8042 75.633 22.8042C75.7654 22.8042 75.8894 22.8042 76.0052 22.8042C76.121 22.8042 76.245 22.8207 76.3774 22.8538L75.5834 25.8303H75.4097C74.93 25.8303 74.4752 25.9212 74.0451 26.1031C73.6316 26.285 73.2677 26.5413 72.9534 26.8721C72.6391 27.1862 72.391 27.5583 72.2091 27.9882C72.0271 28.4182 71.9361 28.8812 71.9361 29.3773V35.6279H69.1573Z" fill="white"/>
<path d="M77.8558 23.1018H80.6346V23.97C81.164 23.5896 81.7346 23.3003 82.3466 23.1018C82.9752 22.9034 83.6368 22.8042 84.3315 22.8042C85.324 22.8042 86.2007 23.0109 86.9615 23.4243C87.7224 23.8377 88.351 24.4082 88.8472 25.1358C89.4427 24.4082 90.1622 23.8377 91.0058 23.4243C91.8659 23.0109 92.7922 22.8042 93.7847 22.8042C94.6613 22.8042 95.447 22.9695 96.1417 23.3003C96.8365 23.6144 97.4319 24.0609 97.9282 24.6397C98.4244 25.2019 98.8048 25.8634 99.0695 26.624C99.3341 27.3847 99.4747 28.2032 99.4913 29.0796C99.5078 29.493 99.5161 30.0635 99.5161 30.7911C99.5161 31.5187 99.5161 32.2463 99.5161 32.9739C99.5161 33.8172 99.5161 34.7019 99.5161 35.6279H96.7372V29.3525C96.7372 28.8564 96.6545 28.4017 96.4891 27.9882C96.3402 27.5583 96.1252 27.1862 95.844 26.8721C95.5628 26.5413 95.232 26.285 94.8516 26.1031C94.4711 25.9212 94.0411 25.8303 93.5614 25.8303C93.0982 25.8303 92.6516 25.9295 92.2216 26.1279C91.7915 26.3098 91.4193 26.5661 91.105 26.8969C90.7908 27.2276 90.5344 27.6079 90.3359 28.0379C90.1539 28.4678 90.063 28.9308 90.063 29.4269C90.0795 29.9064 90.0878 30.4935 90.0878 31.188C90.0878 31.8825 90.0795 32.5605 90.063 33.2219C90.063 33.9991 90.063 34.8011 90.063 35.6279H87.2841V29.3525C87.2841 28.8564 87.2014 28.4017 87.036 27.9882C86.8871 27.5583 86.6721 27.1862 86.3909 26.8721C86.1097 26.5413 85.7789 26.285 85.3984 26.1031C85.018 25.9212 84.5879 25.8303 84.1082 25.8303C83.6286 25.8303 83.1737 25.9212 82.7436 26.1031C82.3301 26.285 81.9662 26.5413 81.6519 26.8721C81.3376 27.1862 81.0895 27.5583 80.9076 27.9882C80.7256 28.4182 80.6346 28.8812 80.6346 29.3773V35.6279H77.8558V23.1018Z" fill="white"/>
<path d="M101.247 29.3773C101.247 28.4678 101.413 27.6162 101.743 26.8225C102.091 26.0287 102.554 25.3342 103.133 24.7389C103.728 24.1436 104.415 23.6723 105.192 23.3251C105.986 22.9778 106.83 22.8042 107.723 22.8042C108.418 22.8042 109.071 22.9034 109.683 23.1018C110.312 23.3003 110.891 23.5896 111.42 23.97V23.1018H114.199V35.6279H111.42V34.7598C110.891 35.1401 110.312 35.4295 109.683 35.6279C109.071 35.8429 108.418 35.9504 107.723 35.9504C106.83 35.9504 105.986 35.7768 105.192 35.4295C104.415 35.0822 103.728 34.611 103.133 34.0157C102.554 33.4204 102.091 32.7258 101.743 31.9321C101.413 31.1384 101.247 30.2868 101.247 29.3773ZM104.274 29.3773C104.274 29.8734 104.365 30.3364 104.547 30.7663C104.729 31.1963 104.969 31.5766 105.267 31.9073C105.581 32.2215 105.945 32.4695 106.358 32.6514C106.788 32.8333 107.243 32.9243 107.723 32.9243C108.203 32.9243 108.649 32.8333 109.063 32.6514C109.493 32.4695 109.857 32.2215 110.155 31.9073C110.469 31.5766 110.717 31.1963 110.899 30.7663C111.081 30.3364 111.172 29.8734 111.172 29.3773C111.172 28.8812 111.081 28.4182 110.899 27.9882C110.717 27.5583 110.469 27.1862 110.155 26.8721C109.857 26.5413 109.493 26.285 109.063 26.1031C108.649 25.9212 108.203 25.8303 107.723 25.8303C107.243 25.8303 106.788 25.9212 106.358 26.1031C105.945 26.285 105.581 26.5413 105.267 26.8721C104.969 27.1862 104.729 27.5583 104.547 27.9882C104.365 28.4182 104.274 28.8812 104.274 29.3773Z" fill="white"/>
<path d="M133.313 17L123.488 32.8499H133.487V35.6279H118.228L128.029 19.7781H118.079V17H133.313Z" fill="#55C9BB"/>
<path d="M134.001 29.4269C134.001 28.5174 134.167 27.6658 134.497 26.8721C134.845 26.0783 135.308 25.3838 135.887 24.7885C136.482 24.1932 137.169 23.7219 137.946 23.3747C138.74 23.0274 139.584 22.8538 140.477 22.8538C141.37 22.8538 142.205 23.0274 142.983 23.3747C143.777 23.7219 144.463 24.1932 145.042 24.7885C145.638 25.3838 146.101 26.0783 146.432 26.8721C146.779 27.6658 146.953 28.5174 146.953 29.4269C146.953 29.7411 146.928 30.0635 146.878 30.3943H137.152C137.367 31.1384 137.773 31.7585 138.368 32.2546C138.98 32.7341 139.683 32.9739 140.477 32.9739C140.957 32.9739 141.403 32.8829 141.817 32.701C142.23 32.5191 142.594 32.2628 142.908 31.9321H146.456C146.208 32.5274 145.886 33.0731 145.489 33.5692C145.092 34.0653 144.629 34.4952 144.099 34.859C143.587 35.2228 143.024 35.5039 142.412 35.7023C141.8 35.9008 141.155 36 140.477 36C139.584 36 138.74 35.8264 137.946 35.4791C137.169 35.1319 136.482 34.6606 135.887 34.0653C135.308 33.47 134.845 32.7755 134.497 31.9817C134.167 31.188 134.001 30.3364 134.001 29.4269ZM137.524 27.6162H143.429C143.132 27.087 142.718 26.6654 142.189 26.3512C141.676 26.037 141.105 25.8799 140.477 25.8799C139.848 25.8799 139.269 26.037 138.74 26.3512C138.227 26.6654 137.822 27.087 137.524 27.6162Z" fill="#55C9BB"/>
<path d="M148.699 35.6279V23.1018H151.478V23.97C152.007 23.5896 152.578 23.3003 153.19 23.1018C153.818 22.9034 154.48 22.8042 155.175 22.8042C156.051 22.8042 156.862 22.9695 157.606 23.3003C158.351 23.6144 159.004 24.0609 159.566 24.6397C160.129 25.2019 160.567 25.8634 160.881 26.624C161.212 27.3847 161.386 28.2032 161.402 29.0796C161.419 29.493 161.427 30.0635 161.427 30.7911C161.427 31.5187 161.419 32.2463 161.402 32.9739C161.402 33.8172 161.402 34.7019 161.402 35.6279H158.624V29.3525C158.624 28.8564 158.516 28.4017 158.301 27.9882C158.103 27.5583 157.83 27.1862 157.482 26.8721C157.151 26.5413 156.763 26.285 156.316 26.1031C155.886 25.9212 155.431 25.8303 154.951 25.8303C154.488 25.8303 154.042 25.9212 153.612 26.1031C153.198 26.285 152.826 26.5413 152.495 26.8721C152.181 27.1862 151.933 27.5583 151.751 27.9882C151.569 28.4182 151.478 28.8812 151.478 29.3773V35.6279H148.699Z" fill="#55C9BB"/>
</svg>
